ffmpeg started on 2025-06-20 at 17:23:04
Report written to "D:\Convert\FFMetrics\reports\ssim_report-6.txt"
Log level: 32
Command line:
ffmpeg -hide_banner -nostdin -i "G:\\\xc0\xed\xe8\xec\xe5\\[\xd2\xee\xef]\\\xc2\xee\xeb\xf7\xe8\xf6\xe0 \xe8 \xef\xf0\xff\xed\xee\xf1\xf2\xe8\\\xd2\xee\xf0\xe3\xee\xe2\xe5\xf6 \xe2\xf1\xf2\xf0\xe5\xf7\xe0\xe5\xf2 \xec\xf3\xe4\xf0\xf3\xfe \xe2\xee\xeb\xf7\xe8\xf6\xf3\\DC_Ookami_to_Koushinryou_Merchant_Meets_the_Wise_Wolf_19_Telegram_HEVC.mkv" -i "G:\\\xc0\xed\xe8\xec\xe5\\[\xd2\xee\xef]\\\xc2\xee\xeb\xf7\xe8\xf6\xe0 \xe8 \xef\xf0\xff\xed\xee\xf1\xf2\xe8\\\xd2\xee\xf0\xe3\xee\xe2\xe5\xf6 \xe2\xf1\xf2\xf0\xe5\xf7\xe0\xe5\xf2 \xec\xf3\xe4\xf0\xf3\xfe \xe2\xee\xeb\xf7\xe8\xf6\xf3\\DC_Ookami_to_Koushinryou_Merchant_Meets_the_Wise_Wolf_19_Telegram.mp4" -lavfi "[0:v]settb=AVTB,setpts=PTS-STARTPTS,format=pix_fmts=yuv420p10,fps=24000/1001,scale=1920:1080:flags=bicubic[main];[1:v]settb=AVTB,setpts=PTS-STARTPTS,format=pix_fmts=yuv420p,fps=24000/1001,scale=1920:1080:flags=bicubic[ref];[main][ref]ssim=eof_action=endall:stats_file='D\\:/Convert/FFMetrics/logs/ssim_logfile-6.txt'" -f null -
Input #0, matroska,webm, from 'G:\Аниме\[Топ]\Волчица и пряности\Торговец встречает мудрую волчицу\DC_Ookami_to_Koushinryou_Merchant_Meets_the_Wise_Wolf_19_Telegram_HEVC.mkv':
  Metadata:
    COMPATIBLE_BRANDS: isomiso2avc1mp41
    MAJOR_BRAND     : isom
    MINOR_VERSION   : 512
    ENCODER         : Lavf61.7.100
  Duration: 00:23:57.65, start: -0.021000, bitrate: 856 kb/s
  Stream #0:0: Video: hevc (Main 10), yuv420p10le(tv, bt709, progressive), 1920x1080 [SAR 1:1 DAR 16:9], 23.98 fps, 23.98 tbr, 1k tbn (default)
      Metadata:
        HANDLER_NAME    : VideoHandler
        VENDOR_ID       : [0][0][0][0]
        ENCODER         : Lavc61.19.100 libx265
        BPS             : 658792
        DURATION        : 00:23:56.559708333
        NUMBER_OF_FRAMES: 34443
        NUMBER_OF_BYTES : 118299279
        _STATISTICS_WRITING_APP: mkvpropedit v66.0.0 ('Josie') 64-bit
        _STATISTICS_WRITING_DATE_UTC: 2025-06-20 12:19:30
        _STATISTICS_TAGS: BPS DURATION NUMBER_OF_FRAMES NUMBER_OF_BYTES
  Stream #0:1: Audio: aac (LC), 48000 Hz, stereo, fltp (default)
      Metadata:
        HANDLER_NAME    : SoundHandler
        VENDOR_ID       : [0][0][0][0]
        ENCODER         : Lavc61.19.100 aac
        BPS             : 193805
        DURATION        : 00:23:57.653000000
        NUMBER_OF_FRAMES: 67391
        NUMBER_OF_BYTES : 34828115
        _STATISTICS_WRITING_APP: mkvpropedit v66.0.0 ('Josie') 64-bit
        _STATISTICS_WRITING_DATE_UTC: 2025-06-20 12:19:30
        _STATISTICS_TAGS: BPS DURATION NUMBER_OF_FRAMES NUMBER_OF_BYTES
Input #1, mov,mp4,m4a,3gp,3g2,mj2, from 'G:\Аниме\[Топ]\Волчица и пряности\Торговец встречает мудрую волчицу\DC_Ookami_to_Koushinryou_Merchant_Meets_the_Wise_Wolf_19_Telegram.mp4':
  Metadata:
    major_brand     : isom
    minor_version   : 512
    compatible_brands: isomiso2avc1mp41
    encoder         : Lavf61.1.100
  Duration: 00:23:57.63, start: 0.000000, bitrate: 3494 kb/s
  Stream #1:0[0x1](und): Video: h264 (High) (avc1 / 0x31637661), yuv420p(tv, bt709, progressive), 1920x1080 [SAR 1:1 DAR 16:9], 3348 kb/s, 23.98 fps, 23.98 tbr, 24k tbn (default)
      Metadata:
        handler_name    : VideoHandler
        vendor_id       : [0][0][0][0]
        encoder         : Lavc61.3.100 h264_qsv
  Stream #1:1[0x2](und): Audio: aac (HE-AACv2) (mp4a / 0x6134706D), 48000 Hz, stereo, fltp, 144 kb/s (default)
      Metadata:
        handler_name    : SoundHandler
        vendor_id       : [0][0][0][0]
Stream mapping:
  Stream #0:0 (hevc) -> settb:default
  Stream #1:0 (h264) -> settb:default
  ssim:default -> Stream #0:0 (wrapped_avframe)
  Stream #0:1 -> #0:1 (aac (native) -> pcm_s16le (native))
Output #0, null, to 'pipe:':
  Metadata:
    COMPATIBLE_BRANDS: isomiso2avc1mp41
    MAJOR_BRAND     : isom
    MINOR_VERSION   : 512
    encoder         : Lavf61.7.100
  Stream #0:0: Video: wrapped_avframe, yuv420p10le(tv, bt709, progressive), 1920x1080 [SAR 1:1 DAR 16:9], q=2-31, 200 kb/s, 23.98 fps, 23.98 tbn
      Metadata:
        encoder         : Lavc61.19.100 wrapped_avframe
  Stream #0:1: Audio: pcm_s16le, 48000 Hz, stereo, s16, 1536 kb/s (default)
      Metadata:
        HANDLER_NAME    : SoundHandler
        VENDOR_ID       : [0][0][0][0]
        _STATISTICS_TAGS: BPS DURATION NUMBER_OF_FRAMES NUMBER_OF_BYTES
        BPS             : 193805
        DURATION        : 00:23:57.653000000
        NUMBER_OF_FRAMES: 67391
        NUMBER_OF_BYTES : 34828115
        _STATISTICS_WRITING_APP: mkvpropedit v66.0.0 ('Josie') 64-bit
        _STATISTICS_WRITING_DATE_UTC: 2025-06-20 12:19:30
        encoder         : Lavc61.19.100 pcm_s16le
frame=  171 fps=0.0 q=-0.0 size=N/A time=00:00:07.13 bitrate=N/A speed=13.8x    frame=  366 fps=357 q=-0.0 size=N/A time=00:00:15.26 bitrate=N/A speed=14.9x    frame=  621 fps=400 q=-0.0 size=N/A time=00:00:25.90 bitrate=N/A speed=16.7x    frame=  849 fps=412 q=-0.0 size=N/A time=00:00:35.41 bitrate=N/A speed=17.2x    frame= 1086 fps=421 q=-0.0 size=N/A time=00:00:45.33 bitrate=N/A speed=17.6x    frame= 1330 fps=431 q=-0.0 size=N/A time=00:00:55.47 bitrate=N/A speed=  18x    frame= 1612 fps=447 q=-0.0 size=N/A time=00:01:07.23 bitrate=N/A speed=18.6x    frame= 1857 fps=451 q=-0.0 size=N/A time=00:01:17.45 bitrate=N/A speed=18.8x    frame= 2122 fps=457 q=-0.0 size=N/A time=00:01:28.50 bitrate=N/A speed=19.1x    frame= 2366 fps=459 q=-0.0 size=N/A time=00:01:38.68 bitrate=N/A speed=19.2x    frame= 2650 fps=468 q=-0.0 size=N/A time=00:01:50.52 bitrate=N/A speed=19.5x    frame= 2924 fps=472 q=-0.0 size=N/A time=00:02:01.95 bitrate=N/A speed=19.7x    frame= 3207 fps=479 q=-0.0 size=N/A time=00:02:13.75 bitrate=N/A speed=  20x    frame= 3456 fps=479 q=-0.0 size=N/A time=00:02:24.14 bitrate=N/A speed=  20x    frame= 3711 fps=479 q=-0.0 size=N/A time=00:02:34.77 bitrate=N/A speed=  20x    frame= 3968 fps=480 q=-0.0 size=N/A time=00:02:45.49 bitrate=N/A speed=  20x    frame= 4246 fps=484 q=-0.0 size=N/A time=00:02:57.09 bitrate=N/A speed=20.2x    frame= 4489 fps=483 q=-0.0 size=N/A time=00:03:07.22 bitrate=N/A speed=20.1x    frame= 4751 fps=484 q=-0.0 size=N/A time=00:03:18.15 bitrate=N/A speed=20.2x    frame= 5016 fps=485 q=-0.0 size=N/A time=00:03:29.20 bitrate=N/A speed=20.2x    frame= 5259 fps=484 q=-0.0 size=N/A time=00:03:39.34 bitrate=N/A speed=20.2x    frame= 5522 fps=485 q=-0.0 size=N/A time=00:03:50.31 bitrate=N/A speed=20.2x    frame= 5759 fps=483 q=-0.0 size=N/A time=00:04:00.19 bitrate=N/A speed=20.2x    frame= 6026 fps=484 q=-0.0 size=N/A time=00:04:11.33 bitrate=N/A speed=20.2x    frame= 6277 fps=485 q=-0.0 size=N/A time=00:04:21.80 bitrate=N/A speed=20.2x    frame= 6545 fps=486 q=-0.0 size=N/A time=00:04:32.98 bitrate=N/A speed=20.3x    frame= 6796 fps=486 q=-0.0 size=N/A time=00:04:43.44 bitrate=N/A speed=20.3x    frame= 7020 fps=484 q=-0.0 size=N/A time=00:04:52.79 bitrate=N/A speed=20.2x    frame= 7240 fps=482 q=-0.0 size=N/A time=00:05:01.96 bitrate=N/A speed=20.1x    frame= 7516 fps=484 q=-0.0 size=N/A time=00:05:13.47 bitrate=N/A speed=20.2x    frame= 7773 fps=484 q=-0.0 size=N/A time=00:05:24.19 bitrate=N/A speed=20.2x    frame= 8039 fps=486 q=-0.0 size=N/A time=00:05:35.29 bitrate=N/A speed=20.3x    frame= 8295 fps=486 q=-0.0 size=N/A time=00:05:45.97 bitrate=N/A speed=20.3x    frame= 8523 fps=485 q=-0.0 size=N/A time=00:05:55.48 bitrate=N/A speed=20.2x    frame= 8758 fps=484 q=-0.0 size=N/A time=00:06:05.28 bitrate=N/A speed=20.2x    frame= 9000 fps=483 q=-0.0 size=N/A time=00:06:15.37 bitrate=N/A speed=20.2x    frame= 9253 fps=483 q=-0.0 size=N/A time=00:06:25.92 bitrate=N/A speed=20.2x    frame= 9521 fps=485 q=-0.0 size=N/A time=00:06:37.10 bitrate=N/A speed=20.2x    frame= 9781 fps=485 q=-0.0 size=N/A time=00:06:47.94 bitrate=N/A speed=20.2x    frame=10043 fps=485 q=-0.0 size=N/A time=00:06:58.87 bitrate=N/A speed=20.2x    frame=10321 fps=487 q=-0.0 size=N/A time=00:07:10.47 bitrate=N/A speed=20.3x    frame=10598 fps=488 q=-0.0 size=N/A time=00:07:22.02 bitrate=N/A speed=20.4x    frame=10842 fps=488 q=-0.0 size=N/A time=00:07:32.20 bitrate=N/A speed=20.3x    frame=11075 fps=487 q=-0.0 size=N/A time=00:07:41.91 bitrate=N/A speed=20.3x    frame=11291 fps=485 q=-0.0 size=N/A time=00:07:50.92 bitrate=N/A speed=20.2x    frame=11544 fps=485 q=-0.0 size=N/A time=00:08:01.48 bitrate=N/A speed=20.2x    frame=11782 fps=485 q=-0.0 size=N/A time=00:08:11.40 bitrate=N/A speed=20.2x    frame=12038 fps=485 q=-0.0 size=N/A time=00:08:22.08 bitrate=N/A speed=20.2x    frame=12301 fps=486 q=-0.0 size=N/A time=00:08:33.09 bitrate=N/A speed=20.3x    frame=12579 fps=487 q=-0.0 size=N/A time=00:08:44.64 bitrate=N/A speed=20.3x    frame=12841 fps=487 q=-0.0 size=N/A time=00:08:55.57 bitrate=N/A speed=20.3x    frame=13091 fps=487 q=-0.0 size=N/A time=00:09:06.00 bitrate=N/A speed=20.3x    frame=13345 fps=487 q=-0.0 size=N/A time=00:09:16.59 bitrate=N/A speed=20.3x    frame=13626 fps=488 q=-0.0 size=N/A time=00:09:28.31 bitrate=N/A speed=20.4x    frame=13889 fps=489 q=-0.0 size=N/A time=00:09:39.28 bitrate=N/A speed=20.4x    frame=14159 fps=489 q=-0.0 size=N/A time=00:09:50.54 bitrate=N/A speed=20.4x    frame=14437 fps=490 q=-0.0 size=N/A time=00:10:02.14 bitrate=N/A speed=20.4x    frame=14703 fps=491 q=-0.0 size=N/A time=00:10:13.23 bitrate=N/A speed=20.5x    frame=14966 fps=491 q=-0.0 size=N/A time=00:10:24.20 bitrate=N/A speed=20.5x    frame=15233 fps=491 q=-0.0 size=N/A time=00:10:35.34 bitrate=N/A speed=20.5x    frame=15516 fps=492 q=-0.0 size=N/A time=00:10:47.14 bitrate=N/A speed=20.5x    frame=15790 fps=493 q=-0.0 size=N/A time=00:10:58.57 bitrate=N/A speed=20.5x    frame=16055 fps=493 q=-0.0 size=N/A time=00:11:09.62 bitrate=N/A speed=20.6x    frame=16322 fps=493 q=-0.0 size=N/A time=00:11:20.76 bitrate=N/A speed=20.6x    frame=16550 fps=493 q=-0.0 size=N/A time=00:11:30.27 bitrate=N/A speed=20.5x    frame=16783 fps=492 q=-0.0 size=N/A time=00:11:39.99 bitrate=N/A speed=20.5x    frame=17040 fps=492 q=-0.0 size=N/A time=00:11:50.71 bitrate=N/A speed=20.5x    frame=17290 fps=492 q=-0.0 size=N/A time=00:12:01.17 bitrate=N/A speed=20.5x    frame=17525 fps=491 q=-0.0 size=N/A time=00:12:10.93 bitrate=N/A speed=20.5x    frame=17784 fps=491 q=-0.0 size=N/A time=00:12:21.74 bitrate=N/A speed=20.5x    frame=18035 fps=491 q=-0.0 size=N/A time=00:12:32.20 bitrate=N/A speed=20.5x    frame=18274 fps=491 q=-0.0 size=N/A time=00:12:42.17 bitrate=N/A speed=20.5x    frame=18494 fps=490 q=-0.0 size=N/A time=00:12:51.35 bitrate=N/A speed=20.4x    frame=18722 fps=489 q=-0.0 size=N/A time=00:13:00.86 bitrate=N/A speed=20.4x    frame=18985 fps=490 q=-0.0 size=N/A time=00:13:11.83 bitrate=N/A speed=20.4x    frame=19244 fps=490 q=-0.0 size=N/A time=00:13:22.63 bitrate=N/A speed=20.4x    frame=19512 fps=490 q=-0.0 size=N/A time=00:13:33.81 bitrate=N/A speed=20.4x    frame=19793 fps=491 q=-0.0 size=N/A time=00:13:45.53 bitrate=N/A speed=20.5x    frame=20081 fps=492 q=-0.0 size=N/A time=00:13:57.54 bitrate=N/A speed=20.5x    frame=20357 fps=492 q=-0.0 size=N/A time=00:14:09.05 bitrate=N/A speed=20.5x    frame=20633 fps=493 q=-0.0 size=N/A time=00:14:20.56 bitrate=N/A speed=20.6x    frame=20891 fps=493 q=-0.0 size=N/A time=00:14:31.32 bitrate=N/A speed=20.6x    frame=21151 fps=493 q=-0.0 size=N/A time=00:14:42.17 bitrate=N/A speed=20.6x    frame=21441 fps=494 q=-0.0 size=N/A time=00:14:54.26 bitrate=N/A speed=20.6x    frame=21732 fps=495 q=-0.0 size=N/A time=00:15:06.40 bitrate=N/A speed=20.6x    frame=22012 fps=495 q=-0.0 size=N/A time=00:15:18.08 bitrate=N/A speed=20.7x    frame=22277 fps=496 q=-0.0 size=N/A time=00:15:29.13 bitrate=N/A speed=20.7x    frame=22561 fps=496 q=-0.0 size=N/A time=00:15:40.98 bitrate=N/A speed=20.7x    frame=22831 fps=496 q=-0.0 size=N/A time=00:15:52.24 bitrate=N/A speed=20.7x    frame=23099 fps=497 q=-0.0 size=N/A time=00:16:03.42 bitrate=N/A speed=20.7x    frame=23364 fps=497 q=-0.0 size=N/A time=00:16:14.47 bitrate=N/A speed=20.7x    frame=23626 fps=497 q=-0.0 size=N/A time=00:16:25.40 bitrate=N/A speed=20.7x    frame=23871 fps=497 q=-0.0 size=N/A time=00:16:35.61 bitrate=N/A speed=20.7x    frame=24144 fps=497 q=-0.0 size=N/A time=00:16:47.00 bitrate=N/A speed=20.7x    frame=24389 fps=497 q=-0.0 size=N/A time=00:16:57.22 bitrate=N/A speed=20.7x    frame=24639 fps=497 q=-0.0 size=N/A time=00:17:07.65 bitrate=N/A speed=20.7x    frame=24900 fps=497 q=-0.0 size=N/A time=00:17:18.53 bitrate=N/A speed=20.7x    frame=25157 fps=497 q=-0.0 size=N/A time=00:17:29.25 bitrate=N/A speed=20.7x    frame=25416 fps=497 q=-0.0 size=N/A time=00:17:40.05 bitrate=N/A speed=20.7x    frame=25681 fps=497 q=-0.0 size=N/A time=00:17:51.11 bitrate=N/A speed=20.7x    frame=25908 fps=497 q=-0.0 size=N/A time=00:18:00.57 bitrate=N/A speed=20.7x    frame=26171 fps=497 q=-0.0 size=N/A time=00:18:11.54 bitrate=N/A speed=20.7x    frame=26466 fps=497 q=-0.0 size=N/A time=00:18:23.85 bitrate=N/A speed=20.7x    frame=26758 fps=498 q=-0.0 size=N/A time=00:18:36.03 bitrate=N/A speed=20.8x    frame=27033 fps=498 q=-0.0 size=N/A time=00:18:47.50 bitrate=N/A speed=20.8x    frame=27304 fps=499 q=-0.0 size=N/A time=00:18:58.80 bitrate=N/A speed=20.8x    frame=27570 fps=499 q=-0.0 size=N/A time=00:19:09.89 bitrate=N/A speed=20.8x    frame=27849 fps=499 q=-0.0 size=N/A time=00:19:21.53 bitrate=N/A speed=20.8x    frame=28134 fps=500 q=-0.0 size=N/A time=00:19:33.42 bitrate=N/A speed=20.8x    frame=28428 fps=500 q=-0.0 size=N/A time=00:19:45.68 bitrate=N/A speed=20.9x    frame=28706 fps=501 q=-0.0 size=N/A time=00:19:57.27 bitrate=N/A speed=20.9x    frame=28971 fps=501 q=-0.0 size=N/A time=00:20:08.33 bitrate=N/A speed=20.9x    frame=29261 fps=501 q=-0.0 size=N/A time=00:20:20.42 bitrate=N/A speed=20.9x    frame=29525 fps=501 q=-0.0 size=N/A time=00:20:31.43 bitrate=N/A speed=20.9x    frame=29782 fps=501 q=-0.0 size=N/A time=00:20:42.15 bitrate=N/A speed=20.9x    frame=30027 fps=501 q=-0.0 size=N/A time=00:20:52.37 bitrate=N/A speed=20.9x    frame=30228 fps=500 q=-0.0 size=N/A time=00:21:00.75 bitrate=N/A speed=20.9x    frame=30458 fps=500 q=-0.0 size=N/A time=00:21:10.35 bitrate=N/A speed=20.8x    frame=30732 fps=500 q=-0.0 size=N/A time=00:21:21.78 bitrate=N/A speed=20.8x    frame=30962 fps=499 q=-0.0 size=N/A time=00:21:31.37 bitrate=N/A speed=20.8x    frame=31209 fps=499 q=-0.0 size=N/A time=00:21:41.67 bitrate=N/A speed=20.8x    frame=31476 fps=499 q=-0.0 size=N/A time=00:21:52.81 bitrate=N/A speed=20.8x    frame=31740 fps=499 q=-0.0 size=N/A time=00:22:03.82 bitrate=N/A speed=20.8x    frame=31979 fps=499 q=-0.0 size=N/A time=00:22:13.79 bitrate=N/A speed=20.8x    frame=32196 fps=498 q=-0.0 size=N/A time=00:22:22.84 bitrate=N/A speed=20.8x    frame=32361 fps=497 q=-0.0 size=N/A time=00:22:29.72 bitrate=N/A speed=20.7x    frame=32564 fps=496 q=-0.0 size=N/A time=00:22:38.19 bitrate=N/A speed=20.7x    frame=32820 fps=496 q=-0.0 size=N/A time=00:22:48.86 bitrate=N/A speed=20.7x    frame=33062 fps=496 q=-0.0 size=N/A time=00:22:58.96 bitrate=N/A speed=20.7x    frame=33261 fps=495 q=-0.0 size=N/A time=00:23:07.26 bitrate=N/A speed=20.7x    frame=33465 fps=494 q=-0.0 size=N/A time=00:23:15.76 bitrate=N/A speed=20.6x    frame=33711 fps=494 q=-0.0 size=N/A time=00:23:26.02 bitrate=N/A speed=20.6x    frame=33968 fps=494 q=-0.0 size=N/A time=00:23:36.74 bitrate=N/A speed=20.6x    frame=34173 fps=494 q=-0.0 size=N/A time=00:23:45.29 bitrate=N/A speed=20.6x    frame=34348 fps=493 q=-0.0 size=N/A time=00:23:52.59 bitrate=N/A speed=20.5x    [Parsed_ssim_10 @ 000002b6185c6200] SSIM Y:0.994511 (22.604962) U:0.993818 (22.089020) V:0.994349 (22.479026) All:0.994369 (22.493794)
[out#0/null @ 000002b6175f54c0] video:14800KiB audio:269564KiB subtitle:0KiB other streams:0KiB global headers:0KiB muxing overhead: unknown
frame=34443 fps=493 q=-0.0 Lsize=N/A time=00:23:56.56 bitrate=N/A speed=20.6x    
